<svg xmlns="http://www.w3.org/2000/svg" width="220" height="40" viewBox="0 0 220 40" role="img" aria-label="Evidence Policy">
  <defs>
    <linearGradient id="bg" x1="0" y1="0" x2="0" y2="1">
      <stop offset="0" stop-color="#ffffff"/>
      <stop offset="1" stop-color="#f6f8fa"/>
    </linearGradient>
    <filter id="shadow" x="-10%" y="-30%" width="120%" height="160%">
      <feDropShadow dx="0" dy="1" stdDeviation="0.6" flood-color="#0b0f19" flood-opacity="0.08"/>
    </filter>
  </defs>
  <g filter="url(#shadow)">
    <rect x="0.5" y="0.5" width="219" height="39" rx="19.5" ry="19.5"
          fill="url(#bg)" stroke="#d0d7de" stroke-width="1"/>
  </g>
  <!-- Document/check icon -->
  <g transform="translate(16,12)" stroke="#1f2328" stroke-width="1.4" fill="none" stroke-linecap="round" stroke-linejoin="round">
    <path d="M3 1h7l4 4v9a1 1 0 0 1-1 1H3a1 1 0 0 1-1-1V2a1 1 0 0 1 1-1z"/>
    <path d="M10 1v4h4"/>
    <path d="M5 10l2 2 4-4"/>
  </g>
  <!-- Label -->
  <text x="44" y="25" fill="#1f2328"
        font-family="-apple-system, BlinkMacSystemFont, 'Segoe UI', Helvetica, Arial, sans-serif"
        font-size="13" font-weight="600" letter-spacing="0.1">
    Evidence Policy
  </text>
  <!-- Arrow -->
  <g transform="translate(194,14)" stroke="#1f2328" stroke-width="1.6" fill="none" stroke-linecap="round" stroke-linejoin="round">
    <path d="M0 6h11"/>
    <path d="M7 2l4 4-4 4"/>
  </g>
</svg>
